{"asset":{"version":"2.0","generator":"THREE.GLTFExporter"},"scenes":[{"nodes":[0],"name":"AuxScene"}],"scene":0,"nodes":[{"mesh":0}],"bufferViews":[{"buffer":0,"byteOffset":0,"byteLength":2520,"target":34962,"byteStride":12},{"buffer":0,"byteOffset":2520,"byteLength":2520,"target":34962,"byteStride":12}],"buffers":[{"byteLength":5040,"uri":"data:application/octet-stream;base64,"}],"accessors":[{"bufferView":0,"componentType":5126,"count":210,"max":[10.488672256469727,8.974024772644043,40.60000228881836],"min":[-15.611328125,-1.425976037979126,-10.399999618530273],"type":"VEC3"},{"bufferView":1,"componentType":5126,"count":210,"max":[0.4221157133579254,1,0.2156650871038437],"min":[-0.3605175316333771,0.15057864785194397,-0.9033921957015991],"type":"VEC3"}],"materials":[{"pbrMetallicRoughness":{"baseColorFactor":[0.5019607843137255,0.5019607843137255,0.5019607843137255,1],"metallicFactor":0,"roughnessFactor":1}}],"meshes":[{"primitives":[{"mode":4,"attributes":{"POSITION":0,"NORMAL":1},"material":0}]}]}