{"asset":{"version":"2.0","generator":"THREE.GLTFExporter"},"scenes":[{"nodes":[0],"name":"AuxScene"}],"scene":0,"nodes":[{"mesh":0}],"bufferViews":[{"buffer":0,"byteOffset":0,"byteLength":2484,"target":34962,"byteStride":12},{"buffer":0,"byteOffset":2484,"byteLength":2484,"target":34962,"byteStride":12}],"buffers":[{"byteLength":4968,"uri":"data:application/octet-stream;base64,"}],"accessors":[{"bufferView":0,"componentType":5126,"count":207,"max":[10.18867301940918,9.125,40.60000228881836],"min":[-15.611328125,-1.274999976158142,-10.399999618530273],"type":"VEC3"},{"bufferView":1,"componentType":5126,"count":207,"max":[0.9937121272087097,1,0.4002390205860138],"min":[-0.5710911750793457,0.09316087514162064,-0.4050350785255432],"type":"VEC3"}],"materials":[{"pbrMetallicRoughness":{"baseColorFactor":[0.5019607843137255,0.5019607843137255,0.5019607843137255,1],"metallicFactor":0,"roughnessFactor":1}}],"meshes":[{"primitives":[{"mode":4,"attributes":{"POSITION":0,"NORMAL":1},"material":0}]}]}