{
  "accessors": [
    {
      "bufferView": 2,
      "componentType": 5126,
      "count": 159,
      "max": [
        2.0887851715087891,
        1.3346563577651978,
        1.0096549987792969
      ],
      "min": [
        0.088785052299499512,
        0.36714708805084229,
        -0.99032974243164062
      ],
      "type": "VEC3"
    },
    {
      "bufferView": 2,
      "byteOffset": 1908,
      "componentType": 5126,
      "count": 159,
      "max": [
        1,
        1,
        1
      ],
      "min": [
        -1,
        1.3969838619232178e-08,
        -1
      ],
      "type": "VEC3"
    },
    {
      "bufferView": 3,
      "componentType": 5126,
      "count": 159,
      "max": [
        0.14673079550266266,
        0.99738162755966187,
        0.88777565956115723,
        1
      ],
      "min": [
        -0.8173404335975647,
        -0.98743194341659546,
        -0.84989655017852783,
        1
      ],
      "type": "VEC4"
    },
    {
      "bufferView": 1,
      "componentType": 5126,
      "count": 159,
      "max": [
        1,
        0.99161398410797119
      ],
      "min": [
        0.65293502807617188,
        0
      ],
      "type": "VEC2"
    },
    {
      "bufferView": 0,
      "componentType": 5125,
      "count": 840,
      "max": [
        158
      ],
      "min": [
        0
      ],
      "type": "SCALAR"
    },
    {
      "bufferView": 2,
      "byteOffset": 3816,
      "componentType": 5126,
      "count": 159,
      "max": [
        0.98552703857421875,
        1.0637619495391846,
        1.0015252828598022
      ],
      "min": [
        -0.80977272987365723,
        -0.54149574041366577,
        -0.99818480014801025
      ],
      "type": "VEC3"
    },
    {
      "bufferView": 2,
      "byteOffset": 5724,
      "componentType": 5126,
      "count": 159,
      "max": [
        1,
        1,
        1
      ],
      "min": [
        -1,
        1.3969838619232178e-08,
        -1
      ],
      "type": "VEC3"
    },
    {
      "bufferView": 3,
      "byteOffset": 2544,
      "componentType": 5126,
      "count": 159,
      "max": [
        0.93644100427627563,
        0.99635112285614014,
        0.96970075368881226,
        -1
      ],
      "min": [
        -0.41630351543426514,
        -0.98805999755859375,
        -0.89659351110458374,
        -1
      ],
      "type": "VEC4"
    },
    {
      "bufferView": 1,
      "byteOffset": 1272,
      "componentType": 5126,
      "count": 159,
      "max": [
        0.98995488882064819,
        0.30006974935531616
      ],
      "min": [
        0.45538035035133362,
        0
      ],
      "type": "VEC2"
    },
    {
      "bufferView": 0,
      "byteOffset": 3360,
      "componentType": 5125,
      "count": 840,
      "max": [
        158
      ],
      "min": [
        0
      ],
      "type": "SCALAR"
    },
    {
      "bufferView": 2,
      "byteOffset": 7632,
      "componentType": 5126,
      "count": 406,
      "max": [
        1.3250020742416382,
        7.9693050384521484,
        0.28820464015007019
      ],
      "min": [
        -1.2177989482879639,
        3.0460453033447266,
        -1.012052059173584
      ],
      "type": "VEC3"
    },
    {
      "bufferView": 2,
      "byteOffset": 12504,
      "componentType": 5126,
      "count": 406,
      "max": [
        0.99153941869735718,
        0.97721928358078003,
        0.99984800815582275
      ],
      "min": [
        -0.99200057983398438,
        -0.85378259420394897,
        -0.99984359741210938
      ],
      "type": "VEC3"
    },
    {
      "bufferView": 3,
      "byteOffset": 5088,
      "componentType": 5126,
      "count": 406,
      "max": [
        0.97515177726745605,
        0.95568603277206421,
        0.99971950054168701,
        1
      ],
      "min": [
        -0.80725306272506714,
        -0.99124526977539062,
        -0.99820899963378906,
        -1
      ],
      "type": "VEC4"
    },
    {
      "bufferView": 1,
      "byteOffset": 2544,
      "componentType": 5126,
      "count": 406,
      "max": [
        0.81963402032852173,
        0.52930283546447754
      ],
      "min": [
        0,
        0
      ],
      "type": "VEC2"
    },
    {
      "bufferView": 0,
      "byteOffset": 6720,
      "componentType": 5125,
      "count": 1863,
      "max": [
        405
      ],
      "min": [
        0
      ],
      "type": "SCALAR"
    },
    {
      "bufferView": 2,
      "byteOffset": 17376,
      "componentType": 5126,
      "count": 291,
      "max": [
        1.2073615789413452,
        1.4012253284454346,
        0.16203786432743073
      ],
      "min": [
        0.82239121198654175,
        0.4318518340587616,
        -0.64825117588043213
      ],
      "type": "VEC3"
    },
    {
      "bufferView": 2,
      "byteOffset": 20868,
      "componentType": 5126,
      "count": 291,
      "max": [
        0.99536126852035522,
        0.87626683712005615,
        0.99771744012832642
      ],
      "min": [
        -0.99905598163604736,
        -1,
        -0.99978655576705933
      ],
      "type": "VEC3"
    },
    {
      "bufferView": 3,
      "byteOffset": 11584,
      "componentType": 5126,
      "count": 291,
      "max": [
        0.99939465522766113,
        0.99482095241546631,
        0.99922561645507812,
        1
      ],
      "min": [
        -0.99981778860092163,
        -0.99968558549880981,
        -0.99814271926879883,
        1
      ],
      "type": "VEC4"
    },
    {
      "bufferView": 1,
      "byteOffset": 5792,
      "componentType": 5126,
      "count": 291,
      "max": [
        0.99802893400192261,
        0.39869681000709534
      ],
      "min": [
        0,
        0.11759663373231888
      ],
      "type": "VEC2"
    },
    {
      "bufferView": 0,
      "byteOffset": 14172,
      "componentType": 5125,
      "count": 1326,
      "max": [
        290
      ],
      "min": [
        0
      ],
      "type": "SCALAR"
    },
    {
      "bufferView": 2,
      "byteOffset": 24360,
      "componentType": 5126,
      "count": 248,
      "max": [
        0.93458092212677002,
        9.6728935241699219,
        -0.043674495071172714
      ],
      "min": [
        -0.92838549613952637,
        4.9178781509399414,
        -1.2677319049835205
      ],
      "type": "VEC3"
    },
    {
      "bufferView": 2,
      "byteOffset": 27336,
      "componentType": 5126,
      "count": 248,
      "max": [
        0.99840915203094482,
        0.98958867788314819,
        0.99653303623199463
      ],
      "min": [
        -0.99840915203094482,
        -0.94218206405639648,
        -0.99817550182342529
      ],
      "type": "VEC3"
    },
    {
      "bufferView": 3,
      "byteOffset": 16240,
      "componentType": 5126,
      "count": 248,
      "max": [
        0.98004525899887085,
        0.98369765281677246,
        0.94365048408508301,
        1
      ],
      "min": [
        -0.98900848627090454,
        -0.99752676486968994,
        -0.99925309419631958,
        -1
      ],
      "type": "VEC4"
    },
    {
      "bufferView": 1,
      "byteOffset": 8120,
      "componentType": 5126,
      "count": 248,
      "max": [
        0.99075210094451904,
        0.82274526357650757
      ],
      "min": [
        0,
        0.39608573913574219
      ],
      "type": "VEC2"
    },
    {
      "bufferView": 0,
      "byteOffset": 19476,
      "componentType": 5125,
      "count": 1278,
      "max": [
        247
      ],
      "min": [
        0
      ],
      "type": "SCALAR"
    },
    {
      "bufferView": 2,
      "byteOffset": 30312,
      "componentType": 5126,
      "count": 293,
      "max": [
        1.2073615789413452,
        1.4012253284454346,
        0.16203786432743073
      ],
      "min": [
        0.82239121198654175,
        0.4318518340587616,
        -0.64825117588043213
      ],
      "type": "VEC3"
    },
    {
      "bufferView": 2,
      "byteOffset": 33828,
      "componentType": 5126,
      "count": 293,
      "max": [
        0.99536126852035522,
        0.87626683712005615,
        0.99771744012832642
      ],
      "min": [
        -0.99905598163604736,
        -1,
        -0.99978655576705933
      ],
      "type": "VEC3"
    },
    {
      "bufferView": 3,
      "byteOffset": 20208,
      "componentType": 5126,
      "count": 293,
      "max": [
        0.98877668380737305,
        0.99822616577148438,
        0.99939024448394775,
        1
      ],
      "min": [
        -0.9997907280921936,
        -0.995006263256073,
        -0.97849124670028687,
        -1
      ],
      "type": "VEC4"
    },
    {
      "bufferView": 1,
      "byteOffset": 10104,
      "componentType": 5126,
      "count": 293,
      "max": [
        0.65890777111053467,
        0.45094224810600281
      ],
      "min": [
        0,
        0
      ],
      "type": "VEC2"
    },
    {
      "bufferView": 0,
      "byteOffset": 24588,
      "componentType": 5125,
      "count": 1326,
      "max": [
        292
      ],
      "min": [
        0
      ],
      "type": "SCALAR"
    },
    {
      "bufferView": 2,
      "byteOffset": 37344,
      "componentType": 5126,
      "count": 2586,
      "max": [
        2.1003727912902832,
        9.6642570495605469,
        0.25346195697784424
      ],
      "min": [
        -2.1003727912902832,
        0.6585925817489624,
        -0.97728419303894043
      ],
      "type": "VEC3"
    },
    {
      "bufferView": 2,
      "byteOffset": 68376,
      "componentType": 5126,
      "count": 2586,
      "max": [
        0.9984092116355896,
        0.99606907367706299,
        0.999897301197052
      ],
      "min": [
        -0.99840915203094482,
        -1,
        -0.99999994039535522
      ],
      "type": "VEC3"
    },
    {
      "bufferView": 3,
      "byteOffset": 24896,
      "componentType": 5126,
      "count": 2586,
      "max": [
        0.99821269512176514,
        0.99982237815856934,
        0.99984604120254517,
        1
      ],
      "min": [
        -0.99995249509811401,
        -0.99988621473312378,
        -0.99954384565353394,
        -1
      ],
      "type": "VEC4"
    },
    {
      "bufferView": 1,
      "byteOffset": 12448,
      "componentType": 5126,
      "count": 2586,
      "max": [
        1,
        0.93234860897064209
      ],
      "min": [
        0,
        0
      ],
      "type": "VEC2"
    },
    {
      "bufferView": 0,
      "byteOffset": 29892,
      "componentType": 5125,
      "count": 12888,
      "max": [
        2585
      ],
      "min": [
        0
      ],
      "type": "SCALAR"
    },
    {
      "bufferView": 2,
      "byteOffset": 99408,
      "componentType": 5126,
      "count": 756,
      "max": [
        0.38326260447502136,
        9.4011878967285156,
        0.051233731210231781
      ],
      "min": [
        -0.38141483068466187,
        9.2951183319091797,
        -0.10805121064186096
      ],
      "type": "VEC3"
    },
    {
      "bufferView": 2,
      "byteOffset": 108480,
      "componentType": 5126,
      "count": 756,
      "max": [
        0.99733829498291016,
        0.90852832794189453,
        0.97932875156402588
      ],
      "min": [
        -0.99755775928497314,
        -0.9085119366645813,
        -0.98090147972106934
      ],
      "type": "VEC3"
    },
    {
      "bufferView": 3,
      "byteOffset": 66272,
      "componentType": 5126,
      "count": 756,
      "max": [
        0.996989905834198,
        0.98234009742736816,
        0.98142385482788086,
        1
      ],
      "min": [
        -0.99854320287704468,
        -0.99988770484924316,
        -0.99606746435165405,
        1
      ],
      "type": "VEC4"
    },
    {
      "bufferView": 1,
      "byteOffset": 33136,
      "componentType": 5126,
      "count": 756,
      "max": [
        0.27572065591812134,
        0.010960996150970459
      ],
      "min": [
        0,
        0
      ],
      "type": "VEC2"
    },
    {
      "bufferView": 0,
      "byteOffset": 81444,
      "componentType": 5125,
      "count": 2880,
      "max": [
        755
      ],
      "min": [
        0
      ],
      "type": "SCALAR"
    }
  ],
  "asset": {
    "extras": {
      "author": "colinmaya (https://sketchfab.com/colinmaya)",
      "license": "CC-BY-NC-4.0 (http://creativecommons.org/licenses/by-nc/4.0/)",
      "source": "https://sketchfab.com/3d-models/sally-skellington-lowpoly-7426fe9784cf40e7a35ff8c6cfa59971",
      "title": "Sally Skellington lowpoly"
    },
    "generator": "Sketchfab-9.24.0",
    "version": "2.0"
  },
  "bufferViews": [
    {
      "buffer": 0,
      "byteLength": 92964,
      "byteOffset": 0,
      "name": "floatBufferViews",
      "target": 34963
    },
    {
      "buffer": 0,
      "byteLength": 39184,
      "byteOffset": 92964,
      "byteStride": 8,
      "name": "floatBufferViews",
      "target": 34962
    },
    {
      "buffer": 0,
      "byteLength": 117552,
      "byteOffset": 132148,
      "byteStride": 12,
      "name": "floatBufferViews",
      "target": 34962
    },
    {
      "buffer": 0,
      "byteLength": 78368,
      "byteOffset": 249700,
      "byteStride": 16,
      "name": "floatBufferViews",
      "target": 34962
    }
  ],
  "buffers": [
    {
      "byteLength": 328068,
      "uri": "sally_skellington.bin"
    }
  ],
  "images": [
    {
      "uri": "textures/objeto_baseColor.jpeg"
    },
    {
      "uri": "textures/objeto_metallicRoughness.png"
    },
    {
      "uri": "textures/objeto_normal.png"
    },
    {
      "uri": "textures/CUERPO_baseColor.jpeg"
    },
    {
      "uri": "textures/CUERPO_metallicRoughness.png"
    },
    {
      "uri": "textures/CUERPO_normal.png"
    }
  ],
  "materials": [
    {
      "doubleSided": true,
      "emissiveFactor": [
        0,
        0,
        0
      ],
      "name": "objeto",
      "normalTexture": {
        "index": 2,
        "scale": 1,
        "texCoord": 0
      },
      "pbrMetallicRoughness": {
        "baseColorFactor": [
          1,
          1,
          1,
          1
        ],
        "baseColorTexture": {
          "index": 0,
          "texCoord": 0
        },
        "metallicFactor": 1,
        "metallicRoughnessTexture": {
          "index": 1,
          "texCoord": 0
        },
        "roughnessFactor": 1
      }
    },
    {
      "doubleSided": true,
      "emissiveFactor": [
        0,
        0,
        0
      ],
      "name": "CUERPO",
      "normalTexture": {
        "index": 5,
        "scale": 1,
        "texCoord": 0
      },
      "pbrMetallicRoughness": {
        "baseColorFactor": [
          1,
          1,
          1,
          1
        ],
        "baseColorTexture": {
          "index": 3,
          "texCoord": 0
        },
        "metallicFactor": 1,
        "metallicRoughnessTexture": {
          "index": 4,
          "texCoord": 0
        },
        "roughnessFactor": 1
      }
    }
  ],
  "meshes": [
    {
      "name": "polySurface13_objeto_0",
      "primitives": [
        {
          "attributes": {
            "NORMAL": 1,
            "POSITION": 0,
            "TANGENT": 2,
            "TEXCOORD_0": 3
          },
          "indices": 4,
          "material": 0,
          "mode": 4
        }
      ]
    },
    {
      "name": "polySurface14_objeto_0",
      "primitives": [
        {
          "attributes": {
            "NORMAL": 6,
            "POSITION": 5,
            "TANGENT": 7,
            "TEXCOORD_0": 8
          },
          "indices": 9,
          "material": 0,
          "mode": 4
        }
      ]
    },
    {
      "name": "polySurface1_objeto_0",
      "primitives": [
        {
          "attributes": {
            "NORMAL": 11,
            "POSITION": 10,
            "TANGENT": 12,
            "TEXCOORD_0": 13
          },
          "indices": 14,
          "material": 0,
          "mode": 4
        }
      ]
    },
    {
      "name": "polySurface3_objeto_0",
      "primitives": [
        {
          "attributes": {
            "NORMAL": 16,
            "POSITION": 15,
            "TANGENT": 17,
            "TEXCOORD_0": 18
          },
          "indices": 19,
          "material": 0,
          "mode": 4
        }
      ]
    },
    {
      "name": "polySurface7_objeto_0",
      "primitives": [
        {
          "attributes": {
            "NORMAL": 21,
            "POSITION": 20,
            "TANGENT": 22,
            "TEXCOORD_0": 23
          },
          "indices": 24,
          "material": 0,
          "mode": 4
        }
      ]
    },
    {
      "name": "polySurface6_objeto_0",
      "primitives": [
        {
          "attributes": {
            "NORMAL": 26,
            "POSITION": 25,
            "TANGENT": 27,
            "TEXCOORD_0": 28
          },
          "indices": 29,
          "material": 0,
          "mode": 4
        }
      ]
    },
    {
      "name": "polySurface11_CUERPO_0",
      "primitives": [
        {
          "attributes": {
            "NORMAL": 31,
            "POSITION": 30,
            "TANGENT": 32,
            "TEXCOORD_0": 33
          },
          "indices": 34,
          "material": 1,
          "mode": 4
        }
      ]
    },
    {
      "name": "pCylinder16_objeto_0",
      "primitives": [
        {
          "attributes": {
            "NORMAL": 36,
            "POSITION": 35,
            "TANGENT": 37,
            "TEXCOORD_0": 38
          },
          "indices": 39,
          "material": 0,
          "mode": 4
        }
      ]
    }
  ],
  "nodes": [
    {
      "children": [
        1
      ],
      "name": "RootNode (gltf orientation matrix)",
      "rotation": [
        -0.70710678118654746,
        -0,
        -0,
        0.70710678118654757
      ]
    },
    {
      "children": [
        2
      ],
      "name": "RootNode (model correction matrix)"
    },
    {
      "children": [
        3
      ],
      "matrix": [
        1,
        0,
        0,
        0,
        0,
        0,
        1,
        0,
        0,
        -1,
        0,
        0,
        0,
        0,
        0,
        1
      ],
      "name": "Sally modelo uvs.fbx"
    },
    {
      "children": [
        4,
        10,
        21,
        23,
        25
      ],
      "name": "RootNode"
    },
    {
      "children": [
        5
      ],
      "matrix": [
        0.25430811326562319,
        0.0031106646713816946,
        -0.085728149390084482,
        0,
        0.085754786269665165,
        -0.0021517335480067202,
        0.2543090540658155,
        0,
        0.0022601912287396751,
        -0.26836039594788957,
        -0.0030327755553169319,
        0,
        0.13390219211578369,
        9.1725978851318359,
        -0.25621706247329712,
        1
      ],
      "name": "pSphere3"
    },
    {
      "children": [
        6,
        8
      ],
      "matrix": [
        1,
        -5.5511151231257815e-17,
        -1.3010426069826051e-18,
        0,
        5.5511151231257815e-17,
        1,
        -1.7347234759768067e-18,
        0,
        1.3010426069826051e-18,
        1.7347234759768067e-18,
        1,
        0,
        -1.121312141418457,
        -0.37811568379402161,
        -0.0099657848477363586,
        1
      ],
      "name": "polySurface12"
    },
    {
      "children": [
        7
      ],
      "name": "polySurface13"
    },
    {
      "mesh": 0,
      "name": "polySurface13_objeto_0"
    },
    {
      "children": [
        9
      ],
      "name": "polySurface14"
    },
    {
      "mesh": 1,
      "name": "polySurface14_objeto_0"
    },
    {
      "children": [
        11,
        13
      ],
      "name": "cuerpo"
    },
    {
      "children": [
        12
      ],
      "name": "polySurface1"
    },
    {
      "mesh": 2,
      "name": "polySurface1_objeto_0"
    },
    {
      "children": [
        14,
        16,
        19
      ],
      "name": "polySurface2"
    },
    {
      "children": [
        15
      ],
      "name": "polySurface3"
    },
    {
      "mesh": 3,
      "name": "polySurface3_objeto_0"
    },
    {
      "children": [
        17
      ],
      "name": "polySurface5"
    },
    {
      "children": [
        18
      ],
      "matrix": [
        1.0089308023452759,
        0,
        0,
        0,
        0,
        1.0089308023452759,
        0,
        0,
        0,
        0,
        1.0089308023452759,
        0,
        0,
        -0.082067050039768219,
        -0.006665877066552639,
        1
      ],
      "name": "polySurface7"
    },
    {
      "mesh": 4,
      "name": "polySurface7_objeto_0"
    },
    {
      "children": [
        20
      ],
      "matrix": [
        -1,
        -0,
        -0,
        -0,
        -0,
        1,
        1.2246467991473532e-16,
        -0,
        -0,
        -1.2246467991473532e-16,
        1,
        -0,
        0,
        0,
        0,
        1
      ],
      "name": "polySurface6"
    },
    {
      "mesh": 5,
      "name": "polySurface6_objeto_0"
    },
    {
      "children": [
        22
      ],
      "matrix": [
        2.2204460492503131e-16,
        0,
        1,
        0,
        0,
        1,
        0,
        0,
        -1,
        0,
        2.2204460492503131e-16,
        0,
        0.14482505619525909,
        6.8208866119384766,
        -1000.0999755859375,
        1
      ],
      "name": "back"
    },
    {
      "name": ""
    },
    {
      "children": [
        24
      ],
      "name": "polySurface11"
    },
    {
      "mesh": 6,
      "name": "polySurface11_CUERPO_0"
    },
    {
      "children": [
        26
      ],
      "name": "pCylinder16"
    },
    {
      "mesh": 7,
      "name": "pCylinder16_objeto_0"
    }
  ],
  "samplers": [
    {
      "magFilter": 9729,
      "minFilter": 9987,
      "wrapS": 10497,
      "wrapT": 10497
    }
  ],
  "scene": 0,
  "scenes": [
    {
      "name": "OSG_Scene",
      "nodes": [
        0
      ]
    }
  ],
  "textures": [
    {
      "sampler": 0,
      "source": 0
    },
    {
      "sampler": 0,
      "source": 1
    },
    {
      "sampler": 0,
      "source": 2
    },
    {
      "sampler": 0,
      "source": 3
    },
    {
      "sampler": 0,
      "source": 4
    },
    {
      "sampler": 0,
      "source": 5
    }
  ]
}

